<svg width="747" height="697" viewBox="0 0 747 697" fill="none" xmlns="http://www.w3.org/2000/svg">
<path opacity="0.5" d="M-186.399 52.0464C-281.945 112.394 -296.751 226.509 -361.461 310.694C-383.987 339.988 -413.094 366.205 -428.28 398.703C-463.145 473.087 -415.161 557.463 -350.936 616.542C-320.311 644.726 -284.539 670.546 -241.259 682.426C-207.976 691.561 -172.289 691.942 -137.255 692.18L476.517 696.938C545.045 697.461 621.186 695.574 670.457 655.701C704.415 628.247 718.209 588.153 729.915 549.882C744.299 502.857 757.334 451.787 734.956 406.998C709.392 355.753 644.746 326.713 604.587 282.495C539.413 210.855 540.911 102.498 457.914 45.3058C419.169 18.6131 368.042 8.1454 318.223 2.91154C224.301 -6.96936 135.336 11.6822 43.1013 9.08115C-35.74 6.86073 -120.993 10.7306 -186.399 52.0464Z" fill="#D3DBFA"/>
</svg>
